<?xml version="1.0" encoding="UTF-8" standalone="no"?>
<svg
   xmlns:dc="http://purl.org/dc/elements/1.1/"
   xmlns:cc="http://creativecommons.org/ns#"
   xmlns:rdf="http://www.w3.org/1999/02/22-rdf-syntax-ns#"
   xmlns:svg="http://www.w3.org/2000/svg"
   xmlns="http://www.w3.org/2000/svg"
   id="svg20"
   xml:space="preserve"
   viewBox="0 0 3500 4295"
   height="4295"
   width="3500"
   version="1.1"><metadata
     id="metadata24"><rdf:RDF><cc:Work
         rdf:about=""><dc:format>image/svg+xml</dc:format><dc:type
           rdf:resource="http://purl.org/dc/dcmitype/StillImage" /></cc:Work></rdf:RDF></metadata><desc
     id="desc2">Created with Fabric.js 1.7.7</desc><defs
     id="defs4" /><g
     id="g18"
     transform="translate(1750,2147.58)"><g
       id="g16"
       transform="scale(18.98)"><g
         id="g8"
         transform="matrix(2.2,0,0,2.2,0,-20.95)"><path
           id="path6"
           transform="translate(-35.425,-35.425)"
           style="opacity:1;fill:#195176;fill-rule:evenodd;stroke:none;stroke-width:1;stroke-linecap:butt;stroke-linejoin:miter;stroke-miterlimit:10;stroke-dasharray:none"
           d="m 39,35.4 c -0.3,-2.333 -1.483,-3.5 -3.55,-3.5 -2.1,0 -3.3,1.167 -3.6,3.5 v 20.8 c 0.2,2.2 1.4,3.399 3.6,3.6 2.167,-0.2 3.35,-1.399 3.55,-3.6 z m 13.45,0 c -0.134,5.833 -2.55,10.5 -7.25,14 -1.733,1.566 -2.017,3.199 -0.851,4.899 1.2,1.7 2.851,2 4.95,0.9 6.7,-4.9 10.134,-11.5 10.3,-19.8 -0.166,-6.833 -2.516,-12.533 -7.05,-17.1 -4.566,-4.533 -10.267,-6.883 -17.1,-7.05 -6.867,0.167 -12.583,2.517 -17.15,7.05 -4.533,4.567 -6.883,10.267 -7.05,17.1 0.2,8.3 3.633,14.9 10.3,19.8 2.1,1.134 3.75,0.833 4.95,-0.9 1.2,-1.7 0.917,-3.333 -0.85,-4.899 -4.7,-3.5 -7.117,-8.167 -7.25,-14 0.133,-4.8 1.8,-8.8 5,-12 3.2,-3.2 7.217,-4.867 12.05,-5 4.8,0.133 8.8,1.8 12,5 3.201,3.2 4.867,7.2 5.001,12 z M 63.2,13.1 62.05,20.95 c 1,1.867 1.817,3.833 2.45,5.9 l 6.35,4.75 v 7.65 L 64.5,44 c -0.633,2.066 -1.45,4.033 -2.45,5.9 l 1.15,7.85 -5.45,5.45 -7.85,-1.15 c -1.867,1 -3.834,1.817 -5.9,2.45 l -4.7,6.35 H 31.6 L 26.85,64.5 c -2.067,-0.633 -4.033,-1.45 -5.9,-2.45 L 13.1,63.2 7.65,57.75 8.8,49.9 C 7.8,48.033 6.984,46.066 6.35,44 L 0,39.25 V 31.6 L 6.35,26.8 C 6.983,24.767 7.8,22.817 8.8,20.95 L 7.65,13.1 13.1,7.65 20.95,8.8 c 1.867,-1 3.833,-1.816 5.9,-2.45 L 31.6,0 h 7.7 L 44,6.35 c 2.1,0.633 4.066,1.45 5.9,2.45 l 7.85,-1.15 z" /></g><g
         id="g14"
         transform="matrix(1.96,0,0,1.96,-13.89,81.28)"><g
           id="text12"
           style="font-weight:normal;font-size:16px;font-family:'Fontdiner Swanky';opacity:1;fill:#195176;fill-rule:nonzero;stroke:none;stroke-width:1;stroke-linecap:butt;stroke-linejoin:miter;stroke-miterlimit:10;stroke-dasharray:none"
           aria-label="IddO Tec"><path
             id="path26"
             style="fill:#195176"
             d="m -21.851875,-5.881875 -3.359375,1.375 -0.265625,9.578125 3.484375,1.359375 H -31.18 l 3.4375,-1.359375 -0.375,-9.484375 -3.75,-1.578125 z" /><path
             id="path28"
             style="fill:#195176"
             d="m -11.39875,6.930625 -5.40625,0.75 0.07813,-1.359375 Q -17.18,6.430625 -17.64875,6.4775 q -0.46875,0.046875 -0.9375,0.046875 -0.921875,0 -1.859375,-0.21875 Q -21.3675,6.1025 -22.1175,5.63375 -22.851875,5.165 -23.320625,4.415 q -0.46875,-0.75 -0.46875,-1.828125 0,-0.875 0.375,-1.5625 0.375,-0.70312504 0.984375,-1.18750004 0.609375,-0.5 1.375,-0.765625 0.78125,-0.26562496 1.59375,-0.26562496 0.796875,0 1.59375,0.171875 0.8125,0.15624996 1.515625,0.48437496 l 0.28125,-5.39062496 -3.453125,-1.640625 6.4375,0.453125 -1.6875,13.25 z m -5.046875,-6.01562504 q -0.453125,-0.3125 -1.125,-0.453125 -0.671875,-0.140625 -1.21875,-0.140625 -0.5625,0 -1.046875,0.1875 -0.46875,0.1875 -0.8125,0.53125004 -0.328125,0.34375 -0.515625,0.828125 -0.1875,0.46875 -0.1875,1.03125 0,0.609375 0.296875,1.0625 0.296875,0.4375 0.765625,0.734375 0.46875,0.28125 1.03125,0.40625 0.5625,0.140625 1.078125,0.140625 0.78125,0 1.546875,-0.3125 z" /><path
             id="path30"
             style="fill:#195176"
             d="m -0.58625031,6.930625 -5.40624999,0.75 0.078125,-1.359375 q -0.453125,0.109375 -0.921875,0.15625 -0.46875,0.046875 -0.9375,0.046875 -0.921875,0 -1.859375,-0.21875 Q -10.555,6.1025 -11.305,5.63375 -12.039375,5.165 -12.508125,4.415 q -0.46875,-0.75 -0.46875,-1.828125 0,-0.875 0.375,-1.5625 0.375,-0.70312504 0.984375,-1.18750004 0.609375,-0.5 1.375,-0.765625 0.7812497,-0.26562496 1.5937497,-0.26562496 0.796875,0 1.59375,0.171875 0.8125,0.15624996 1.515625,0.48437496 l 0.28125,-5.39062496 -3.453125,-1.640625 6.4375,0.453125 -1.6875,13.25 z M -5.6331253,0.91499996 q -0.453125,-0.3125 -1.125,-0.453125 -0.671875,-0.140625 -1.21875,-0.140625 -0.5625,0 -1.046875,0.1875 -0.46875,0.1875 -0.8125,0.53125004 -0.3281247,0.34375 -0.5156247,0.828125 -0.1875,0.46875 -0.1875,1.03125 0,0.609375 0.296875,1.0625 0.2968747,0.4375 0.7656247,0.734375 0.46875,0.28125 1.03125,0.40625 0.5625,0.140625 1.078125,0.140625 0.78125,0 1.546875,-0.3125 z" /><path
             id="path32"
             style="fill:#195176"
             d="m 10.445,0.16499996 q 0,1.28125004 -0.5625003,2.23437504 -0.5625,0.9375 -1.453125,1.578125 -0.890625,0.625 -2.015625,0.9375 -1.125,0.3125 -2.25,0.3125 -1.125,0 -2.21875,-0.328125 Q 0.86687469,4.57125 0.00749969,3.94625 -0.83625031,3.305625 -1.3518753,2.368125 -1.8675003,1.415 -1.8675003,0.16499996 q 0,-1.37499996 0.546875,-2.32812496 0.54687499,-0.953125 1.45312499,-1.53125 0.90625001,-0.59375 2.06250001,-0.859375 1.15625,-0.265625 2.359375,-0.265625 1.125,0 2.171875,0.328125 1.0625,0.3125 1.890625,0.9375 0.828125,0.625 1.328125,1.5625 Q 10.445,-1.05375 10.445,0.16499996 Z m -2.9843753,-0.03125 q 0,-0.640625 -0.203125,-1.24999996 -0.1875,-0.625 -0.5625,-1.09375 -0.359375,-0.484375 -0.90625,-0.765625 -0.53125,-0.296875 -1.234375,-0.296875 -0.734375,0 -1.375,0.25 -0.625,0.25 -1.09375,0.703125 -0.46875,0.4375 -0.734375,1.0625 -0.265625,0.60937496 -0.265625,1.32812496 0,0.671875 0.171875,1.32812504 0.1875,0.640625 0.546875,1.15625 0.375,0.515625 0.9375,0.828125 0.5625,0.3125 1.328125,0.3125 0.84375,0 1.484375,-0.25 0.640625,-0.265625 1.0625,-0.734375 0.421875,-0.46875 0.625,-1.125 0.21875,-0.65625004 0.21875,-1.45312504 z" /><path
             id="path34"
             style="fill:#195176"
             d="M 27.32,-5.55375 26.66375,-0.05375004 25.335625,-4.21 23.2575,-4.24125 l -0.25,7.875 3.53125,1.703125 L 17.148125,5.243125 20.57,3.555625 20.35125,-4.2725 18.41375,-4.288125 16.991875,-0.08500004 16.523125,-5.71 Z" /><path
             id="path36"
             style="fill:#195176"
             d="m 35.8825,2.19625 q 0,0.109375 -0.01563,0.21875 0,0.109375 0,0.21875 l -6.359375,0.125 q 0.203125,0.921875 0.921875,1.359375 0.71875,0.4375 1.625,0.4375 0.4375,0 0.890625,-0.0625 Q 33.398125,4.430625 33.835625,4.29 34.273125,4.149375 34.66375,3.930625 35.054375,3.69625 35.366875,3.38375 35.195,4.04 34.78875,4.54 34.3825,5.04 33.82,5.368125 33.273125,5.69625 32.616875,5.8525 q -0.640625,0.171875 -1.28125,0.171875 -0.875,0 -1.671875,-0.3125 Q 28.8825,5.399375 28.28875,4.8525 27.710625,4.305625 27.366875,3.54 q -0.34375,-0.765625 -0.34375,-1.671875 0,-0.95312504 0.390625,-1.73437504 0.390625,-0.78125 1.03125,-1.32812496 0.640625,-0.5625 1.484375,-0.859375 0.84375,-0.296875 1.765625,-0.296875 0.96875,0 1.734375,0.359375 0.78125,0.359375 1.328125,0.984375 0.546875,0.62499996 0.828125,1.45312496 Q 35.8825,1.25875 35.8825,2.19625 Z M 33.491875,1.399375 Q 33.460625,0.97749996 33.32,0.58687496 q -0.140625,-0.390625 -0.390625,-0.6875 -0.25,-0.296875 -0.609375,-0.46875 -0.34375,-0.1875 -0.8125,-0.1875 -0.46875,0 -0.8125,0.171875 -0.34375,0.171875 -0.578125,0.46875 -0.234375,0.28125 -0.390625,0.671875 -0.140625,0.375 -0.21875,0.78125004 z" /><path
             id="path38"
             style="fill:#195176"
             d="m 45.32,1.8525 q 0.01563,1 -0.28125,1.78125 Q 44.7575,4.415 44.195,4.94625 43.648125,5.4775 42.85125,5.743125 q -0.78125,0.28125 -1.75,0.28125 -0.953125,0 -1.796875,-0.3125 Q 38.47625,5.399375 37.85125,4.82125 37.241875,4.243125 36.8825,3.44625 36.523125,2.649375 36.523125,1.665 q 0,-1.03125004 0.40625,-1.87500004 0.40625,-0.84374996 1.09375,-1.43749996 0.6875,-0.59375 1.578125,-0.90625 0.90625,-0.328125 1.890625,-0.328125 0.53125,0 1.15625,0.171875 0.640625,0.171875 1.1875,0.5 0.5625,0.328125 0.921875,0.8125 0.375,0.48437496 0.375,1.12499996 0,0.59375 -0.359375,0.953125 Q 44.41375,1.04 43.82,1.04 q -0.59375,0 -1.015625,-0.32812504 -0.421875,-0.34375 -0.421875,-0.953125 0,-0.203125 0.03125,-0.421875 0.04687,-0.234375 0.15625,-0.40624996 -0.265625,-0.21875 -0.578125,-0.3125 -0.3125,-0.09375 -0.640625,-0.09375 -0.59375,0 -1.015625,0.296875 -0.40625,0.28124996 -0.671875,0.71874996 -0.25,0.4375 -0.359375,0.984375 Q 39.195,1.055625 39.195,1.54 q 0,0.609375 0.1875,1.125 0.1875,0.5 0.546875,0.875 0.359375,0.359375 0.859375,0.578125 0.5,0.203125 1.140625,0.203125 0.5625,0 1.0625,-0.21875 0.5,-0.21875 0.921875,-0.5625 Q 44.335625,3.180625 44.679375,2.743125 45.03875,2.305625 45.32,1.8525 Z" /></g></g></g></g></svg>