<svg xmlns="http://www.w3.org/2000/svg" xmlns:xlink="http://www.w3.org/1999/xlink" width="500" zoomAndPan="magnify" viewBox="0 0 375 374.999991" height="500" preserveAspectRatio="xMidYMid meet" version="1.0"><defs><g/><clipPath id="974f8f6e6b"><path d="M 6.84375 6.84375 L 368.34375 6.84375 L 368.34375 368.34375 L 6.84375 368.34375 Z M 6.84375 6.84375 " clip-rule="nonzero"/></clipPath></defs><g clip-path="url(#974f8f6e6b)"><path fill="#000000" d="M 368.144531 187.496094 C 368.144531 190.453125 368.074219 193.40625 367.929688 196.359375 C 367.785156 199.3125 367.566406 202.261719 367.277344 205.203125 C 366.984375 208.144531 366.625 211.078125 366.191406 214.003906 C 365.757812 216.925781 365.25 219.839844 364.675781 222.738281 C 364.097656 225.636719 363.449219 228.523438 362.730469 231.390625 C 362.011719 234.257812 361.226562 237.105469 360.367188 239.9375 C 359.507812 242.765625 358.582031 245.570312 357.585938 248.355469 C 356.589844 251.136719 355.527344 253.894531 354.394531 256.628906 C 353.261719 259.359375 352.066406 262.0625 350.800781 264.734375 C 349.539062 267.40625 348.207031 270.046875 346.816406 272.652344 C 345.421875 275.261719 343.964844 277.832031 342.445312 280.367188 C 340.925781 282.902344 339.34375 285.402344 337.699219 287.859375 C 336.058594 290.316406 334.355469 292.734375 332.59375 295.109375 C 330.835938 297.484375 329.015625 299.8125 327.140625 302.097656 C 325.265625 304.382812 323.335938 306.621094 321.347656 308.8125 C 319.363281 311.003906 317.324219 313.144531 315.234375 315.234375 C 313.144531 317.324219 311.003906 319.363281 308.8125 321.347656 C 306.621094 323.335938 304.382812 325.265625 302.097656 327.140625 C 299.8125 329.015625 297.484375 330.835938 295.109375 332.59375 C 292.734375 334.355469 290.316406 336.058594 287.859375 337.699219 C 285.402344 339.34375 282.902344 340.925781 280.367188 342.445312 C 277.832031 343.964844 275.261719 345.421875 272.652344 346.816406 C 270.046875 348.207031 267.40625 349.539062 264.734375 350.800781 C 262.0625 352.066406 259.359375 353.261719 256.628906 354.394531 C 253.894531 355.527344 251.136719 356.589844 248.355469 357.585938 C 245.570312 358.582031 242.765625 359.507812 239.9375 360.367188 C 237.105469 361.226562 234.257812 362.011719 231.390625 362.730469 C 228.523438 363.449219 225.636719 364.097656 222.738281 364.675781 C 219.839844 365.25 216.925781 365.757812 214.003906 366.191406 C 211.078125 366.625 208.144531 366.984375 205.203125 367.277344 C 202.261719 367.566406 199.3125 367.785156 196.359375 367.929688 C 193.40625 368.074219 190.453125 368.144531 187.496094 368.144531 C 184.539062 368.144531 181.585938 368.074219 178.632812 367.929688 C 175.679688 367.785156 172.730469 367.566406 169.789062 367.277344 C 166.847656 366.984375 163.914062 366.625 160.988281 366.191406 C 158.0625 365.757812 155.152344 365.25 152.253906 364.675781 C 149.351562 364.097656 146.46875 363.449219 143.601562 362.730469 C 140.734375 362.011719 137.882812 361.226562 135.054688 360.367188 C 132.226562 359.507812 129.417969 358.582031 126.636719 357.585938 C 123.851562 356.589844 121.09375 355.527344 118.363281 354.394531 C 115.632812 353.261719 112.929688 352.066406 110.257812 350.800781 C 107.585938 349.539062 104.945312 348.207031 102.335938 346.816406 C 99.730469 345.421875 97.160156 343.964844 94.621094 342.445312 C 92.085938 340.925781 89.589844 339.34375 87.132812 337.699219 C 84.671875 336.058594 82.257812 334.355469 79.882812 332.59375 C 77.507812 330.835938 75.175781 329.015625 72.890625 327.140625 C 70.605469 325.265625 68.367188 323.335938 66.179688 321.347656 C 63.988281 319.363281 61.847656 317.324219 59.757812 315.234375 C 57.664062 313.144531 55.628906 311.003906 53.640625 308.8125 C 51.65625 306.621094 49.726562 304.382812 47.851562 302.097656 C 45.976562 299.8125 44.15625 297.484375 42.394531 295.109375 C 40.632812 292.734375 38.933594 290.316406 37.289062 287.859375 C 35.648438 285.402344 34.066406 282.902344 32.546875 280.367188 C 31.027344 277.832031 29.570312 275.261719 28.175781 272.652344 C 26.78125 270.046875 25.453125 267.40625 24.191406 264.734375 C 22.925781 262.0625 21.726562 259.359375 20.597656 256.628906 C 19.464844 253.894531 18.402344 251.136719 17.40625 248.355469 C 16.410156 245.570312 15.480469 242.765625 14.625 239.9375 C 13.765625 237.105469 12.976562 234.257812 12.257812 231.390625 C 11.539062 228.523438 10.894531 225.636719 10.316406 222.738281 C 9.738281 219.839844 9.234375 216.925781 8.800781 214.003906 C 8.367188 211.078125 8.003906 208.144531 7.714844 205.203125 C 7.425781 202.261719 7.207031 199.3125 7.0625 196.359375 C 6.917969 193.40625 6.84375 190.453125 6.84375 187.496094 C 6.84375 184.539062 6.917969 181.585938 7.0625 178.632812 C 7.207031 175.679688 7.425781 172.730469 7.714844 169.789062 C 8.003906 166.847656 8.367188 163.914062 8.800781 160.988281 C 9.234375 158.0625 9.738281 155.152344 10.316406 152.253906 C 10.894531 149.351562 11.539062 146.46875 12.257812 143.601562 C 12.976562 140.734375 13.765625 137.882812 14.625 135.054688 C 15.480469 132.226562 16.410156 129.421875 17.40625 126.636719 C 18.402344 123.851562 19.464844 121.09375 20.597656 118.363281 C 21.726562 115.632812 22.925781 112.929688 24.191406 110.257812 C 25.453125 107.585938 26.78125 104.945312 28.175781 102.335938 C 29.570312 99.730469 31.027344 97.160156 32.546875 94.621094 C 34.066406 92.085938 35.648438 89.589844 37.289062 87.132812 C 38.933594 84.671875 40.632812 82.257812 42.394531 79.882812 C 44.15625 77.507812 45.976562 75.175781 47.851562 72.890625 C 49.726562 70.605469 51.65625 68.367188 53.640625 66.179688 C 55.628906 63.988281 57.664062 61.847656 59.757812 59.757812 C 61.847656 57.664062 63.988281 55.628906 66.179688 53.640625 C 68.367188 51.65625 70.605469 49.726562 72.890625 47.851562 C 75.175781 45.976562 77.507812 44.15625 79.882812 42.394531 C 82.257812 40.632812 84.671875 38.933594 87.132812 37.289062 C 89.589844 35.648438 92.085938 34.066406 94.621094 32.546875 C 97.160156 31.027344 99.730469 29.570312 102.335938 28.175781 C 104.945312 26.78125 107.585938 25.453125 110.257812 24.191406 C 112.929688 22.925781 115.632812 21.726562 118.363281 20.597656 C 121.09375 19.464844 123.851562 18.402344 126.636719 17.40625 C 129.417969 16.410156 132.226562 15.480469 135.054688 14.625 C 137.882812 13.765625 140.734375 12.976562 143.601562 12.257812 C 146.46875 11.539062 149.351562 10.894531 152.253906 10.316406 C 155.152344 9.738281 158.0625 9.234375 160.988281 8.800781 C 163.914062 8.367188 166.847656 8.003906 169.789062 7.714844 C 172.730469 7.425781 175.679688 7.207031 178.632812 7.0625 C 181.585938 6.917969 184.539062 6.84375 187.496094 6.84375 C 190.453125 6.84375 193.40625 6.917969 196.359375 7.0625 C 199.3125 7.207031 202.261719 7.425781 205.203125 7.714844 C 208.144531 8.003906 211.078125 8.367188 214.003906 8.800781 C 216.925781 9.234375 219.839844 9.738281 222.738281 10.316406 C 225.636719 10.894531 228.523438 11.539062 231.390625 12.257812 C 234.257812 12.976562 237.105469 13.765625 239.9375 14.625 C 242.765625 15.480469 245.570312 16.410156 248.355469 17.40625 C 251.136719 18.402344 253.894531 19.464844 256.628906 20.597656 C 259.359375 21.726562 262.0625 22.925781 264.734375 24.191406 C 267.40625 25.453125 270.046875 26.78125 272.652344 28.175781 C 275.261719 29.570312 277.832031 31.027344 280.367188 32.546875 C 282.90625 34.066406 285.402344 35.648438 287.859375 37.289062 C 290.316406 38.933594 292.734375 40.632812 295.109375 42.394531 C 297.484375 44.15625 299.8125 45.976562 302.097656 47.851562 C 304.382812 49.726562 306.621094 51.65625 308.8125 53.640625 C 311.003906 55.628906 313.144531 57.664062 315.234375 59.757812 C 317.324219 61.847656 319.363281 63.988281 321.347656 66.179688 C 323.335938 68.367188 325.265625 70.605469 327.140625 72.890625 C 329.015625 75.175781 330.835938 77.507812 332.59375 79.882812 C 334.355469 82.257812 336.058594 84.671875 337.699219 87.132812 C 339.34375 89.589844 340.925781 92.085938 342.445312 94.621094 C 343.964844 97.160156 345.421875 99.730469 346.816406 102.335938 C 348.207031 104.945312 349.539062 107.585938 350.800781 110.257812 C 352.066406 112.929688 353.261719 115.632812 354.394531 118.363281 C 355.527344 121.09375 356.589844 123.851562 357.585938 126.636719 C 358.582031 129.421875 359.507812 132.226562 360.367188 135.054688 C 361.226562 137.882812 362.015625 140.734375 362.730469 143.601562 C 363.449219 146.46875 364.097656 149.351562 364.675781 152.253906 C 365.25 155.152344 365.757812 158.0625 366.191406 160.988281 C 366.625 163.914062 366.984375 166.847656 367.277344 169.789062 C 367.566406 172.730469 367.785156 175.679688 367.929688 178.632812 C 368.074219 181.585938 368.144531 184.539062 368.144531 187.496094 Z M 368.144531 187.496094 " fill-opacity="1" fill-rule="nonzero"/></g><g fill="#ffffff" fill-opacity="1"><g transform="translate(32.365579, 260.465652)"><g><path d="M 88.671875 -2.171875 L 73.203125 -30.0625 L 73.203125 9.59375 L 35.734375 12.859375 L 13.9375 1.953125 L 13.9375 -163.625 L 68.625 -168.421875 C 69.789062 -168.566406 70.914062 -168.640625 72 -168.640625 C 73.09375 -168.640625 74.148438 -168.640625 75.171875 -168.640625 C 83.585938 -168.640625 91.71875 -167.332031 99.5625 -164.71875 C 107.40625 -162.101562 114.453125 -158.253906 120.703125 -153.171875 C 126.953125 -148.085938 131.890625 -141.945312 135.515625 -134.75 C 139.148438 -127.5625 140.96875 -119.394531 140.96875 -110.25 C 140.96875 -87.15625 132.539062 -70.519531 115.6875 -60.34375 L 152.515625 5.234375 L 110.46875 8.71875 Z M 90.859375 -72.109375 C 99.859375 -77.054688 106.460938 -83.59375 110.671875 -91.71875 C 114.890625 -99.851562 117 -109.660156 117 -121.140625 C 117 -134.648438 113.257812 -145.578125 105.78125 -153.921875 C 98.300781 -162.273438 87.804688 -166.453125 74.296875 -166.453125 C 73.421875 -166.453125 72.546875 -166.453125 71.671875 -166.453125 C 70.804688 -166.453125 69.863281 -166.378906 68.84375 -166.234375 L 16.125 -161.65625 L 16.125 -0.21875 L 49.234375 -3.046875 L 49.234375 -60.5625 L 58.609375 -61.4375 L 89.765625 -4.359375 L 127.015625 -7.625 Z M 49.234375 -133.125 L 63.625 -134.421875 L 66.015625 -134.421875 C 70.804688 -134.421875 74.835938 -133.003906 78.109375 -130.171875 C 81.378906 -127.347656 83.015625 -122.445312 83.015625 -115.46875 C 83.015625 -108.207031 81.269531 -102.578125 77.78125 -98.578125 C 74.289062 -94.585938 69.570312 -92.300781 63.625 -91.71875 L 49.234375 -90.421875 Z M 73.203125 -97.171875 C 78.285156 -100.804688 80.828125 -106.90625 80.828125 -115.46875 C 80.828125 -116.488281 80.789062 -117.429688 80.71875 -118.296875 C 80.644531 -119.171875 80.535156 -120.046875 80.390625 -120.921875 L 73.203125 -120.265625 Z M 73.203125 -97.171875 "/></g></g></g><g fill="#ffffff" fill-opacity="1"><g transform="translate(183.559667, 260.465652)"><g><path d="M 102.40625 -108.5 C 101.382812 -110.96875 100.328125 -113.289062 99.234375 -115.46875 C 98.148438 -117.644531 97.023438 -119.679688 95.859375 -121.578125 C 85.691406 -120.410156 78.359375 -115.394531 73.859375 -106.53125 C 69.359375 -97.675781 67.109375 -86.132812 67.109375 -71.90625 C 67.109375 -56.21875 69.285156 -44.523438 73.640625 -36.828125 C 74.078125 -36.960938 74.734375 -37.03125 75.609375 -37.03125 C 79.960938 -37.46875 83.695312 -39.101562 86.8125 -41.9375 C 89.9375 -44.769531 92.625 -48.328125 94.875 -52.609375 C 97.132812 -56.898438 98.988281 -61.441406 100.4375 -66.234375 L 153.390625 -39.4375 C 148.160156 -23.75 141.1875 -11.328125 132.46875 -2.171875 C 123.75 6.972656 111.617188 12.203125 96.078125 13.515625 C 94.921875 13.648438 93.722656 13.71875 92.484375 13.71875 C 91.253906 13.71875 90.054688 13.71875 88.890625 13.71875 C 78.722656 13.71875 68.738281 11.9375 58.9375 8.375 C 49.132812 4.820312 40.347656 -0.726562 32.578125 -8.28125 C 24.804688 -15.832031 18.59375 -25.523438 13.9375 -37.359375 C 9.289062 -49.203125 6.96875 -63.398438 6.96875 -79.953125 C 6.96875 -92.160156 8.492188 -103.671875 11.546875 -114.484375 C 14.597656 -125.304688 19.0625 -134.859375 24.9375 -143.140625 C 30.820312 -151.421875 37.941406 -158.140625 46.296875 -163.296875 C 54.648438 -168.453125 64.128906 -171.46875 74.734375 -172.34375 C 75.890625 -172.488281 77.046875 -172.5625 78.203125 -172.5625 C 79.367188 -172.5625 80.535156 -172.5625 81.703125 -172.5625 C 93.328125 -172.5625 103.894531 -170.085938 113.40625 -165.140625 C 122.914062 -160.203125 131.117188 -153.664062 138.015625 -145.53125 C 144.921875 -137.40625 150.1875 -128.40625 153.8125 -118.53125 L 124.1875 -97.609375 Z M 101.75 -62.96875 C 100.4375 -58.75 98.617188 -54.535156 96.296875 -50.328125 C 93.972656 -46.117188 91.140625 -42.597656 87.796875 -39.765625 C 84.460938 -36.929688 80.472656 -35.296875 75.828125 -34.859375 C 75.242188 -34.710938 74.625 -34.640625 73.96875 -34.640625 C 73.3125 -34.640625 72.625 -34.640625 71.90625 -34.640625 C 62.601562 -34.640625 55.484375 -38.414062 50.546875 -45.96875 C 45.609375 -53.519531 43.140625 -65.796875 43.140625 -82.796875 C 43.140625 -98.046875 45.609375 -110.242188 50.546875 -119.390625 C 55.484375 -128.546875 63.472656 -133.628906 74.515625 -134.640625 L 76.90625 -134.640625 C 84.019531 -134.640625 89.570312 -132.390625 93.5625 -127.890625 C 97.5625 -123.390625 100.796875 -118.015625 103.265625 -111.765625 L 129.421875 -130.078125 C 126.804688 -137.046875 123.425781 -143.578125 119.28125 -149.671875 C 115.144531 -155.773438 109.914062 -160.75 103.59375 -164.59375 C 97.28125 -168.445312 89.546875 -170.375 80.390625 -170.375 C 79.523438 -170.375 78.65625 -170.375 77.78125 -170.375 C 76.90625 -170.375 75.960938 -170.300781 74.953125 -170.15625 C 64.640625 -169.289062 55.414062 -166.347656 47.28125 -161.328125 C 39.144531 -156.316406 32.242188 -149.742188 26.578125 -141.609375 C 20.910156 -133.484375 16.585938 -124.15625 13.609375 -113.625 C 10.640625 -103.09375 9.15625 -91.867188 9.15625 -79.953125 C 9.15625 -63.398438 11.585938 -49.09375 16.453125 -37.03125 C 21.316406 -24.976562 28.210938 -15.679688 37.140625 -9.140625 C 46.078125 -2.609375 56.5 0.65625 68.40625 0.65625 C 69.28125 0.65625 70.1875 0.65625 71.125 0.65625 C 72.070312 0.65625 73.054688 0.582031 74.078125 0.4375 C 89.179688 -0.726562 100.910156 -5.703125 109.265625 -14.484375 C 117.617188 -23.273438 124.191406 -34.785156 128.984375 -49.015625 Z M 101.75 -62.96875 "/></g></g></g></svg>